<?xml version="1.0" encoding="UTF-8"?>
<svg width="256" height="256" viewBox="0 0 256 256" fill="none" xmlns="http://www.w3.org/2000/svg">
  <defs>
    <linearGradient id="bg" x1="32" y1="24" x2="224" y2="232" gradientUnits="userSpaceOnUse">
      <stop offset="0" stop-color="#FF6B6B"/>
      <stop offset="1" stop-color="#E63946"/>
    </linearGradient>
    <linearGradient id="paper" x1="118" y1="62" x2="214" y2="194" gradientUnits="userSpaceOnUse">
      <stop offset="0" stop-color="#FFFDF8"/>
      <stop offset="1" stop-color="#F4F1EA"/>
    </linearGradient>
    <filter id="shadow" x="0" y="0" width="256" height="256" filterUnits="userSpaceOnUse" color-interpolation-filters="sRGB">
      <feDropShadow dx="0" dy="8" stdDeviation="10" flood-color="#8A1C26" flood-opacity="0.28"/>
    </filter>
    <filter id="soft" x="0" y="0" width="256" height="256" filterUnits="userSpaceOnUse" color-interpolation-filters="sRGB">
      <feDropShadow dx="0" dy="4" stdDeviation="6" flood-color="#000000" flood-opacity="0.12"/>
    </filter>
  </defs>

  <!-- App tile -->
  <rect x="20" y="20" width="216" height="216" rx="52" fill="url(#bg)"/>

  <!-- Subtle highlight -->
  <path d="M52 40C80 28 118 24 152 30C111 36 72 58 50 96C40 79 40 54 52 40Z" fill="white" fill-opacity="0.10"/>

  <!-- Tomato / Pomodoro body -->
  <g filter="url(#shadow)">
    <path d="M118 72
             C92 72 69 89 58 113
             C46 140 57 174 83 190
             C107 204 141 203 163 187
             C188 169 197 135 184 110
             C172 87 146 72 118 72Z"
          fill="#D62839"/>
    <path d="M116 79
             C95 79 76 92 67 111
             C57 132 65 159 86 173
             C106 186 135 185 154 172
             C175 158 183 134 173 114
             C164 93 142 79 116 79Z"
          fill="#FF5A5F"/>
    <ellipse cx="97" cy="108" rx="24" ry="15" transform="rotate(-28 97 108)" fill="white" fill-opacity="0.14"/>
  </g>

  <!-- Tomato leaves / top -->
  <g filter="url(#soft)">
    <path d="M118 58
             C123 48 134 44 145 45
             C138 52 137 60 141 69
             C131 67 124 64 118 58Z"
          fill="#2F9E44"/>
    <path d="M116 58
             C108 49 95 46 84 49
             C92 55 95 63 92 72
             C103 68 110 64 116 58Z"
          fill="#3DBB5D"/>
    <path d="M117 56
             C116 45 121 36 131 31
             C131 41 128 50 135 58
             C128 60 121 59 117 56Z"
          fill="#228B3B"/>
    <rect x="114" y="49" width="8" height="20" rx="4" fill="#2B9348"/>
  </g>

  <!-- Task list card -->
  <g filter="url(#soft)">
    <rect x="118" y="68" width="76" height="110" rx="16" fill="url(#paper)"/>
    <rect x="132" y="82" width="30" height="8" rx="4" fill="#E3DDD2"/>
    <circle cx="137" cy="106" r="7.5" fill="#22C55E"/>
    <path d="M133.5 106L136.2 108.8L141 103.4" stroke="white" stroke-width="3.2" stroke-linecap="round" stroke-linejoin="round"/>
    <rect x="150" y="101.5" width="28" height="8" rx="4" fill="#C9C1B6"/>
    <circle cx="137" cy="128" r="7.5" fill="#60A5FA"/>
    <path d="M133.5 128L136.2 130.8L141 125.4" stroke="white" stroke-width="3.2" stroke-linecap="round" stroke-linejoin="round"/>
    <rect x="150" y="123.5" width="24" height="8" rx="4" fill="#C9C1B6"/>
    <circle cx="137" cy="150" r="7.5" fill="#F59E0B"/>
    <path d="M133.5 150L136.2 152.8L141 147.4" stroke="white" stroke-width="3.2" stroke-linecap="round" stroke-linejoin="round"/>
    <rect x="150" y="145.5" width="20" height="8" rx="4" fill="#C9C1B6"/>
  </g>

  <!-- Clock hand hint -->
  <g opacity="0.96">
    <circle cx="104" cy="134" r="9" fill="#FFF4E6"/>
    <path d="M104 134L104 112" stroke="#7A1E2C" stroke-width="8" stroke-linecap="round"/>
    <path d="M104 134L120 144" stroke="#7A1E2C" stroke-width="8" stroke-linecap="round"/>
  </g>

  <!-- Outer ring detail -->
  <circle cx="104" cy="134" r="47" stroke="white" stroke-opacity="0.14" stroke-width="4"/>
</svg>
